<svg xmlns="http://www.w3.org/2000/svg" viewBox="0 0 512 512" width="100%" height="100%">
  <defs>
    <linearGradient id="glowGrad" x1="0%" y1="0%" x2="100%" y2="100%">
      <stop offset="0%" stop-color="#06b6d4" />
      <stop offset="50%" stop-color="#3b82f6" />
      <stop offset="100%" stop-color="#10b981" />
    </linearGradient>
    <filter id="shadow" x="-20%" y="-20%" width="140%" height="140%">
      <feDropShadow dx="0" dy="12" stdDeviation="16" flood-color="#06b6d4" flood-opacity="0.3"/>
    </filter>
  </defs>
  <rect width="512" height="512" rx="128" fill="#0f172a" />
  <circle cx="256" cy="256" r="160" fill="none" stroke="url(#glowGrad)" stroke-width="12" filter="url(#shadow)" opacity="0.85" />
  <g transform="translate(256, 256)">
    <path d="M0,-110 C5,-40 40,-5 110,0 C40,5 5,40 0,110 C-5,40 -40,5 -110,0 C-40,-5 -5,-40 0,-110 Z" fill="url(#glowGrad)" filter="url(#shadow)" />
    <path d="M70,-70 C72,-40 90,-22 120,-20 C90,-18 72,0 70,30 C68,0 50,-18 48,-20 C50,-22 68,-40 70,-70 Z" fill="#ffffff" opacity="0.9" />
  </g>
</svg>